PathFileType        4      (X/Y/Z)      C:\Users\ibrah\OneDrive - KTH\Model Validation - Orthoload\rmr-solver-1.0 - original\rmr-solver-1.0\ExperimentalData\S8R\trc\transformed_MSbfkg1.trc         
DataRate	CameraRate	NumFrames	NumMarkers	Units	OrigDataRate	OrigDataStartFrame	OrigNumFrames
50.0	50.0	5	27	mm	50.0	200	398
Frame#	Time	IJ			PX			C7			T8			SC			AA			TS			AI			PC			ACv			ACd			GH			EM			EL			EM2			EL2			US			RS			US2			RS2			MCP2			MCP5			SCREWAA			SCREWTS			SCREWAI			ACvloc			ACdloc			
		X1	Y1	Z1	X2	Y2	Z2	X3	Y3	Z3	X4	Y4	Z4	X5	Y5	Z5	X6	Y6	Z6	X7	Y7	Z7	X8	Y8	Z8	X9	Y9	Z9	X10	Y10	Z10	X11	Y11	Z11	X12	Y12	Z12	X13	Y13	Z13	X14	Y14	Z14	X15	Y15	Z15	X16	Y16	Z16	X17	Y17	Z17	X18	Y18	Z18	X19	Y19	Z19	X20	Y20	Z20	X21	Y21	Z21	X22	Y22	Z22	X23	Y23	Z23	X24	Y24	Z24	X25	Y25	Z25	X26	Y26	Z26	X27	Y27	Z27	
200	3.98	46.84814684832082	-15.9588746590394	12.40275534505556	72.12266919597879	-162.5855382481355	23.91611317300177	-63.12464796579611	92.25502248564504	-10.60810363208253	-164.3208382755236	-92.98669173880941	-23.6374646099295	37.92838264118891	-4.952108259674015	34.90955769173387	-86.07646069930264	28.86795973367565	179.0804307317722	-119.2303006984632	46.24434653977604	86.97967926476983	-173.2945776882379	-107.6670511791206	55.39850764031579	-12.03189148987935	13.70967584443047	142.5206410163014	-51.94538451136235	54.9363105150389	167.1016004915883	-51.94538451136235	54.9363105150389	167.1016004915883	-96.70210105906087	-3.166151706709023	183.7430572686303	-222.6741045531892	-264.1035754403415	204.0280336470553	-225.1905015986329	-244.5138672209585	273.1881292147106													-300.4903470899774	-459.0981178454534	305.8367062665923	-345.3221542672968	-433.7774064883816	333.6623812719725																						
201	4.0	48.91664326183366	-16.76359775057538	12.59131482366018	73.0643873080379	-163.5521361515672	24.49162590761341	-60.17359129694135	92.21728514364663	-11.01928602893681	-162.696934708198	-92.29814346669214	-24.01774683299985	40.00118665382263	-5.644627164578696	35.04480067848326	-84.07193286346553	30.13344385710741	178.2301269225707	-116.2067558237926	47.71366415520427	85.80567763855379	-171.7431124079112	-105.6330536012258	54.01557884962357	-9.881060221011072	14.06523196530613	142.3606742568868	-49.53943623495733	55.78960836258816	166.5106407032171	-49.53943623495733	55.78960836258816	166.5106407032171	-94.8600141448731	-1.055454877109983	183.2081492984389	-226.787124925843	-259.0598285201562	203.2782352903789	-229.6798336335703	-239.0885783383764	272.3207828506037													-310.9151913466198	-451.6779764950295	305.0912728476098	-355.3441003903492	-425.0822177206582	332.3741361409797																						
202	4.02	50.89611317189479	-17.56076177929944	12.75067827991094	73.94202483116234	-164.496591161034	25.03584878803413	-57.32761113059484	92.15918990402803	-11.43249504711859	-161.1451081665488	-91.63714645320755	-24.365232106649	41.99074348627139	-6.329669264313883	35.1525415121835	-82.0701436120692	31.38308002536015	177.3906381417167	-113.2330131023516	49.12921270920061	84.66548610750738	-170.2339532336475	-103.6496203149192	52.71739701480917	-7.768133804835674	14.4038499437058	142.1781686643332	-47.15267229931769	56.62375394756648	165.9103872133811	-47.15267229931769	56.62375394756648	165.9103872133811	-92.99545781055774	1.004771182603142	182.6864265120297	-230.6143560477883	-254.0371936191545	202.5706406657968	-233.8483840078754	-233.672714200378	271.4894446685308													-320.8411920584471	-444.1580219920441	304.3522363991987	-364.8239892135005	-416.3216345931424	331.1210586845572																						
203	4.04	52.78357803131095	-18.35229933544772	12.88058537564404	74.75192106728035	-165.4216940309219	25.54536185960115	-54.58963470326903	92.08036944980982	-11.84644276771946	-159.6697634713504	-91.00359426606609	-24.68378576323134	43.89392563162068	-7.009791796702769	35.23276992598383	-80.07354089111901	32.60993464923597	176.5683747917101	-110.3161615864557	50.48732894180528	83.5656048974826	-168.7764595757779	-101.7196229852904	51.51075078504537	-5.695785890333317	14.71984919165254	141.975742860901	-44.7874537415134	57.43228825467946	165.3058923927182	-44.7874537415134	57.43228825467946	165.3058923927182	-91.117930225419	3.005516655449108	182.1847736610523	-234.161751664716	-249.0619555040922	201.9160689385389	-237.6936139691135	-228.2978538451465	270.7066993041681													-330.2662258328165	-436.5778284847285	303.6377244490396	-373.7607985849821	-407.5363457327939	329.924392572287																						
204	4.06	54.57751459241086	-19.14111614377033	12.98023586451743	75.49122008214556	-166.3313516028805	26.01696619687118	-51.96063089642489	91.9799613708434	-12.26133825737569	-158.2741043427418	-90.39753664850804	-24.9783858224362	45.70899258695664	-7.688395789523031	35.28485007890011	-78.08510068180959	33.80668740310605	175.7678344517996	-107.4630974016716	51.78496126592407	82.51040405239034	-167.379730837084	-99.84494926939213	50.39886547345271	-3.666830965495599	15.00733370167169	141.7544436369268	-42.44650566101693	58.20841195013637	164.700681704825	-42.44650566101693	58.20841195013637	164.700681704825	-89.23665743299402	4.938003219007005	181.7087123374835	-237.4374665586767	-244.1588675400199	201.3232321972924	-241.2167885859944	-222.9943269851548	269.9833237624231													-339.1932666079791	-428.9749791143055	302.963458139817	-382.1589747598363	-398.7649349323489	328.8024826286741																						
